<svg width="22" height="18" viewBox="0 0 22 18" fill="none" xmlns="http://www.w3.org/2000/svg">
<g clip-path="url(#clip0_2_9)">
<path d="M9.54102 17.9102C9.87307 17.9102 10.1465 17.8028 10.3613 17.5879C10.5762 17.373 10.6836 17.0996 10.6836 16.7676V13.0371H10.9668C12.2298 13.0371 13.3463 13.1608 14.3164 13.4082C15.2865 13.6556 16.1426 14.0804 16.8848 14.6826C17.6269 15.2848 18.2812 16.1198 18.8477 17.1875C19.017 17.5 19.2074 17.6985 19.4189 17.7832C19.6305 17.8679 19.8405 17.9102 20.0488 17.9102C20.3093 17.9102 20.542 17.7979 20.7471 17.5732C20.9522 17.3486 21.0547 17.0247 21.0547 16.6016C21.0547 14.7982 20.8578 13.1755 20.4639 11.7334C20.07 10.2913 19.4645 9.05924 18.6475 8.03711C17.8304 7.01498 16.7855 6.23373 15.5127 5.69336C14.2399 5.15299 12.7246 4.88281 10.9668 4.88281H10.6836V1.19141C10.6836 0.865887 10.5762 0.585937 10.3613 0.351562C10.1465 0.117187 9.86656 0 9.52148 0C9.2806 0 9.06576 0.053711 8.87695 0.161133C8.68815 0.268555 8.46354 0.445964 8.20312 0.693359L0.498047 7.90039C0.309245 8.07617 0.179037 8.25521 0.107422 8.4375C0.0358073 8.61979 0 8.79232 0 8.95508C0 9.11133 0.0358073 9.2806 0.107422 9.46289C0.179037 9.64518 0.309245 9.82422 0.498047 10L8.20312 17.2754C8.4375 17.4967 8.65886 17.6579 8.86719 17.7588C9.07552 17.8597 9.30013 17.9102 9.54102 17.9102Z" fill="#2F7CF6"/>
</g>
<defs>
<clipPath id="clip0_2_9">
<rect width="21.0547" height="17.9199" fill="white"/>
</clipPath>
</defs>
</svg>
